<svg width="131" height="131" viewBox="0 0 131 131" fill="none" xmlns="http://www.w3.org/2000/svg">
<circle cx="65.5" cy="65.5" r="65.5" fill="#FFBF1C"/>
<path d="M43.7309 84.6931C45.0018 85.4743 46.4566 86.3218 47.9659 87.0496C50.1175 88.0872 52.5865 88.9866 54.9307 88.9866C55.2775 88.9866 55.6893 88.9837 56.048 88.9322C56.3217 88.893 57.1432 88.761 57.682 88.0126C58.2584 87.2121 58.0667 86.352 57.9812 86.036C57.8815 85.6676 57.7077 85.2817 57.5496 84.9493C56.793 83.2323 55.3463 81.8327 54.366 80.8844C54.3146 80.8348 54.2646 80.7863 54.216 80.7392C52.0188 78.5575 49.499 76.7767 47.1286 75.1015C46.6906 74.792 46.2576 74.486 45.8328 74.1817C43.0459 72.1862 40.5262 70.2167 38.5769 67.6136C36.818 65.2476 35.758 62.811 36.4563 60.6507L36.4589 60.6427L36.4614 60.6346C36.8458 59.4065 37.5785 58.7455 38.5189 58.3781C39.5395 57.9794 40.8825 57.9075 42.3491 58.1289L42.3491 58.1289L42.3593 58.1304C47.2483 58.8401 52.5622 61.0877 57.0021 63.7897L55.6938 65.9918C53.4578 64.7202 51.1292 63.6153 48.7971 62.6413C48.511 62.5201 48.1701 62.3596 47.7519 62.1627C47.642 62.1109 47.5267 62.0566 47.4056 61.9999C46.8469 61.7379 46.2021 61.4413 45.5386 61.1759C44.8795 60.9123 44.1578 60.6613 43.4412 60.5041C42.7444 60.3514 41.9193 60.2566 41.1078 60.4217L41.1018 60.4229C40.3285 60.5829 39.3223 61.0537 38.9756 62.2103C38.6917 63.157 39.0524 64.0085 39.262 64.4253C39.6585 65.2136 40.3742 66.042 40.7751 66.506C40.8274 66.5665 40.8743 66.6208 40.9144 66.668C43.0987 69.315 45.6904 71.5974 48.5922 73.4296C52.4539 76.0149 56.001 78.5233 58.5465 82.0984L58.5554 82.1109L58.5645 82.1233C59.8031 83.8022 60.602 85.8679 60.572 87.6018C60.5575 88.4411 60.3518 89.1576 59.9591 89.7445C59.5768 90.3158 58.9442 90.8744 57.886 91.2993C55.5961 92.0389 52.6686 91.5619 49.4959 90.348C46.9974 89.3919 44.5527 88.0607 42.4651 86.8237L43.7309 84.6931ZM94.4264 50.1338L87.8794 56.7068L87.7534 56.5808L94.5441 49.8162L95.8357 48.5295L94.5466 47.2403L92.7125 45.4062L91.4258 44.1195L90.1391 45.4062L89.343 46.2023L84.7977 41.657L90.1945 36.2602C90.2055 36.2492 90.2152 36.2435 90.2241 36.2399C90.2343 36.2357 90.2456 36.2336 90.2562 36.2336C90.2627 36.2336 90.2673 36.2344 90.2698 36.235L90.2808 36.2465L90.2945 36.2602L94.7398 40.7055L94.7664 40.732C94.7664 40.7321 94.7664 40.7321 94.7664 40.7322C94.7664 40.7473 94.7633 40.7636 94.7576 40.7776C94.7526 40.7903 94.7465 40.7988 94.7398 40.8055L94.7013 40.844C94.4032 41.1419 94.0061 41.5387 93.6909 41.9573C93.3859 42.3622 92.9617 43.0349 92.9338 43.8985C92.8728 44.8197 93.2939 45.563 93.6067 45.9998C93.9336 46.4564 94.3372 46.848 94.6841 47.1484C94.7147 47.1799 94.7446 47.2109 94.774 47.2412C95.191 47.6717 95.4879 47.9783 95.7072 48.274C95.7898 48.3855 95.8366 48.4639 95.8625 48.5132C95.831 48.5765 95.7652 48.6911 95.6316 48.8641C95.3554 49.2218 94.9612 49.6154 94.4495 50.111L94.4379 50.1223L94.4264 50.1338ZM80.0155 46.4103L84.5653 50.98L68.7564 66.7889H64.2111V62.2427L80.0155 46.4103Z" stroke="#2C2C2C" stroke-width="3.63934"/>
</svg>
