<svg width="131" height="131" viewBox="0 0 131 131" fill="none" xmlns="http://www.w3.org/2000/svg">
<circle cx="65.5" cy="65.5" r="65.5" fill="#FFBF1C"/>
<path d="M64.5535 27.918L99.0415 47.8302V82.5439C99.0415 84.0973 98.6325 85.6234 97.8558 86.9687C97.0791 88.314 95.9619 89.4312 94.6166 90.2079L68.9785 105.014C67.6331 105.79 66.107 106.199 64.5535 106.199C63.0001 106.199 61.474 105.79 60.1286 105.014L34.4905 90.2079C33.1452 89.4312 32.028 88.314 31.2513 86.9687C30.4746 85.6234 30.0656 84.0973 30.0656 82.5439V47.8302L64.5535 27.918Z" stroke="#2C2C2C" stroke-width="4" stroke-linecap="round" stroke-linejoin="round"/>
<path d="M64.5535 45.6178V67.7424M64.5535 67.7424L45.3936 78.8048M64.5535 67.7424L83.7135 78.8048" stroke="#2C2C2C" stroke-width="5" stroke-linecap="round" stroke-linejoin="round"/>
</svg>
