<svg width="43" height="43" viewBox="0 0 43 43" fill="none" xmlns="http://www.w3.org/2000/svg">
<g clip-path="url(#clip0_41_144)">
<path d="M5.62594 0.975586H37.372C39.9409 0.975586 42.0234 3.05806 42.0234 5.62691V37.3696C42.0234 39.9385 39.9409 42.021 37.372 42.021H5.62594C3.05708 42.021 0.974609 39.9385 0.974609 37.3696V5.62691C0.974609 3.05806 3.05708 0.975586 5.62594 0.975586Z" fill="#FFBF1C" stroke="black" stroke-width="0.5"/>
<path d="M17.6805 20.2505C17.6805 20.2505 21.2079 19.9885 21.2079 15.8531C21.2079 11.7177 18.3222 9.69873 14.6672 9.69873H2.64062V32.8112H14.6672C14.6672 32.8112 22.0074 33.043 22.0074 25.9883C22.0074 25.9883 22.3299 20.2505 17.6805 20.2505ZM7.93836 13.8072H14.6571C14.6571 13.8072 16.2931 13.8072 16.2931 16.2126C16.2931 18.6179 15.3323 18.9672 14.2405 18.9672H7.94172L7.93836 13.8072ZM14.3548 28.7027H7.94172V22.5282H14.6605C14.6605 22.5282 17.096 22.4946 17.096 25.7028C17.1027 28.3735 15.3223 28.6758 14.3581 28.7027H14.3548ZM31.8 15.581C22.9111 15.581 22.9212 24.4598 22.9212 24.4598C22.9212 24.4598 22.3098 33.295 31.8 33.295C31.8 33.295 39.708 33.7451 39.708 27.1507H35.6431C35.6431 27.1507 35.7775 29.6366 31.9478 29.6366C31.9478 29.6366 27.8796 29.9087 27.8796 25.6054H39.8558C39.8558 25.6054 41.1559 15.581 31.8 15.581ZM35.4147 22.5282H27.8225C27.8225 22.5282 28.3197 18.9672 31.8907 18.9672C35.4617 18.9672 35.4147 22.5282 35.4147 22.5282ZM26.8281 11.0626H36.362V13.908H26.8281V11.0626Z" fill="white"/>
</g>
<defs>
<clipPath id="clip0_41_144">
<rect width="43" height="43" fill="white"/>
</clipPath>
</defs>
</svg>
