<svg width="56" height="56" viewBox="0 0 56 56" fill="none" xmlns="http://www.w3.org/2000/svg">
<mask id="path-1-inside-1_10_11" fill="white">
<path d="M28.0023 4.66666C15.1106 4.66666 4.66895 15.1083 4.66895 28C4.66614 32.898 6.20568 37.6726 9.06917 41.6464C11.9327 45.6202 15.9747 48.5914 20.6219 50.1387C21.7886 50.3417 22.2273 49.6417 22.2273 49.028C22.2273 48.475 22.1969 46.6387 22.1969 44.6833C16.3356 45.7637 14.8189 43.2553 14.3523 41.9417C14.0886 41.2697 12.9523 39.2 11.9606 38.6447C11.1439 38.2083 9.97728 37.128 11.9303 37.1C13.7689 37.0697 15.0803 38.7917 15.5189 39.4917C17.6189 43.0197 20.9719 42.028 22.3136 41.4167C22.5189 39.9 23.1303 38.8803 23.8023 38.297C18.6106 37.7137 13.1856 35.7 13.1856 26.775C13.1856 24.2363 14.0886 22.1387 15.5773 20.5053C15.3439 19.922 14.5273 17.5303 15.8106 14.322C15.8106 14.322 17.7636 13.7083 22.2273 16.7113C24.1269 16.1849 26.0894 15.9204 28.0606 15.925C30.0439 15.925 32.0273 16.1863 33.8939 16.7113C38.3576 13.678 40.3106 14.322 40.3106 14.322C41.5939 17.5303 40.7773 19.922 40.5439 20.5053C42.0303 22.1387 42.9356 24.2083 42.9356 26.775C42.9356 35.7303 37.4826 37.7137 32.2909 38.297C33.1356 39.025 33.8659 40.425 33.8659 42.6137C33.8659 45.7333 33.8356 48.2417 33.8356 49.0303C33.8356 49.6417 34.2743 50.3697 35.4409 50.1363C40.0722 48.5721 44.0965 45.5951 46.9473 41.6241C49.7982 37.6532 51.3321 32.8883 51.3333 28C51.3333 15.1083 40.8916 4.66666 27.9999 4.66666"/>
</mask>
<path d="M28.0023 4.66666C15.1106 4.66666 4.66895 15.1083 4.66895 28C4.66614 32.898 6.20568 37.6726 9.06917 41.6464C11.9327 45.6202 15.9747 48.5914 20.6219 50.1387C21.7886 50.3417 22.2273 49.6417 22.2273 49.028C22.2273 48.475 22.1969 46.6387 22.1969 44.6833C16.3356 45.7637 14.8189 43.2553 14.3523 41.9417C14.0886 41.2697 12.9523 39.2 11.9606 38.6447C11.1439 38.2083 9.97728 37.128 11.9303 37.1C13.7689 37.0697 15.0803 38.7917 15.5189 39.4917C17.6189 43.0197 20.9719 42.028 22.3136 41.4167C22.5189 39.9 23.1303 38.8803 23.8023 38.297C18.6106 37.7137 13.1856 35.7 13.1856 26.775C13.1856 24.2363 14.0886 22.1387 15.5773 20.5053C15.3439 19.922 14.5273 17.5303 15.8106 14.322C15.8106 14.322 17.7636 13.7083 22.2273 16.7113C24.1269 16.1849 26.0894 15.9204 28.0606 15.925C30.0439 15.925 32.0273 16.1863 33.8939 16.7113C38.3576 13.678 40.3106 14.322 40.3106 14.322C41.5939 17.5303 40.7773 19.922 40.5439 20.5053C42.0303 22.1387 42.9356 24.2083 42.9356 26.775C42.9356 35.7303 37.4826 37.7137 32.2909 38.297C33.1356 39.025 33.8659 40.425 33.8659 42.6137C33.8659 45.7333 33.8356 48.2417 33.8356 49.0303C33.8356 49.6417 34.2743 50.3697 35.4409 50.1363C40.0722 48.5721 44.0965 45.5951 46.9473 41.6241C49.7982 37.6532 51.3321 32.8883 51.3333 28C51.3333 15.1083 40.8916 4.66666 27.9999 4.66666" fill="#FFBF1C"/>
<path d="M4.66895 28L5.16895 28.0003V28H4.66895ZM20.6219 50.1387L20.464 50.6131L20.4994 50.6249L20.5362 50.6313L20.6219 50.1387ZM22.1969 44.6833H22.6969V44.0827L22.1063 44.1916L22.1969 44.6833ZM14.3523 41.9417L14.8234 41.7743L14.8207 41.7666L14.8177 41.759L14.3523 41.9417ZM11.9606 38.6447L12.205 38.2083L12.1962 38.2037L11.9606 38.6447ZM11.9303 37.1L11.9375 37.5999L11.9385 37.5999L11.9303 37.1ZM15.5189 39.4917L15.9487 39.2358L15.9426 39.2262L15.5189 39.4917ZM22.3136 41.4167L22.5209 41.8717L22.7721 41.7572L22.8091 41.4837L22.3136 41.4167ZM23.8023 38.297L24.13 38.6746L24.9908 37.9274L23.8581 37.8001L23.8023 38.297ZM15.5773 20.5053L15.9468 20.8421L16.1579 20.6106L16.0415 20.3196L15.5773 20.5053ZM15.8106 14.322L15.6607 13.845L15.4345 13.9161L15.3464 14.1363L15.8106 14.322ZM22.2273 16.7113L21.9482 17.1262L22.1391 17.2546L22.3608 17.1932L22.2273 16.7113ZM28.0606 15.925L28.0594 16.425H28.0606V15.925ZM33.8939 16.7113L33.7586 17.1926L33.9825 17.2556L34.175 17.1249L33.8939 16.7113ZM40.3106 14.322L40.7749 14.1363L40.6884 13.9201L40.4672 13.8471L40.3106 14.322ZM40.5439 20.5053L40.0797 20.3196L39.9634 20.6103L40.1741 20.8418L40.5439 20.5053ZM32.2909 38.297L32.2351 37.8001L31.097 37.928L31.9645 38.6757L32.2909 38.297ZM35.4409 50.1363L35.539 50.6266L35.5705 50.6203L35.6009 50.61L35.4409 50.1363ZM51.3333 28L51.8333 28.0001V28H51.3333ZM28.0023 4.16666C14.8345 4.16666 4.16895 14.8322 4.16895 28H5.16895C5.16895 15.3845 15.3868 5.16666 28.0023 5.16666V4.16666ZM4.16895 27.9997C4.16608 33.0027 5.73863 37.8797 8.66352 41.9387L9.47483 41.3541C6.67273 37.4655 5.1662 32.7933 5.16895 28.0003L4.16895 27.9997ZM8.66352 41.9387C11.5884 45.9977 15.7171 49.0327 20.464 50.6131L20.7799 49.6643C16.2323 48.1502 12.2769 45.2427 9.47483 41.3541L8.66352 41.9387ZM20.5362 50.6313C21.2289 50.7518 21.7967 50.6155 22.1937 50.2638C22.5788 49.9227 22.7273 49.4448 22.7273 49.028H21.7273C21.7273 49.2249 21.6564 49.4038 21.5306 49.5153C21.4165 49.6164 21.1817 49.7285 20.7077 49.6461L20.5362 50.6313ZM22.7273 49.028C22.7273 48.7482 22.7196 48.1455 22.7121 47.3766C22.7045 46.6046 22.6969 45.6586 22.6969 44.6833H21.6969C21.6969 45.6634 21.7045 46.6132 21.7121 47.3864C21.7198 48.1628 21.7273 48.7548 21.7273 49.028H22.7273ZM22.1063 44.1916C19.2466 44.7187 17.5314 44.3547 16.4962 43.7741C15.4667 43.1968 15.0321 42.3617 14.8234 41.7743L13.8811 42.109C14.1391 42.8352 14.6962 43.9112 16.007 44.6463C17.3121 45.3783 19.286 45.7283 22.2876 45.175L22.1063 44.1916ZM14.8177 41.759C14.6701 41.3828 14.3019 40.6663 13.8473 39.9747C13.6182 39.6264 13.3606 39.274 13.09 38.9682C12.8239 38.6675 12.5235 38.3868 12.2049 38.2084L11.7163 39.0809C11.8935 39.1802 12.1071 39.3664 12.3412 39.631C12.5708 39.8904 12.7997 40.2016 13.0116 40.5241C13.439 41.1742 13.7708 41.8286 13.8868 42.1243L14.8177 41.759ZM12.1962 38.2037C12.0205 38.1098 11.8238 37.9797 11.6587 37.8407C11.4824 37.6923 11.3899 37.5735 11.3618 37.5118C11.3502 37.4864 11.3692 37.5128 11.3588 37.5721C11.3461 37.645 11.304 37.6861 11.2923 37.6947C11.2911 37.6956 11.3278 37.67 11.4427 37.6453C11.5539 37.6213 11.7143 37.6031 11.9374 37.5999L11.9231 36.6C11.4224 36.6072 10.9885 36.6771 10.7002 36.8888C10.536 37.0095 10.4118 37.1823 10.3738 37.3999C10.3381 37.6038 10.3886 37.7879 10.4519 37.9266C10.5734 38.1931 10.8036 38.4279 11.0147 38.6057C11.237 38.7928 11.4924 38.9614 11.725 39.0857L12.1962 38.2037ZM11.9385 37.5999C12.6937 37.5875 13.3677 37.9344 13.9281 38.4049C14.4875 38.8745 14.8928 39.4341 15.0953 39.7572L15.9426 39.2262C15.7064 38.8492 15.2367 38.1978 14.5711 37.639C13.9065 37.0811 13.0055 36.5822 11.922 36.6001L11.9385 37.5999ZM15.0893 39.7474C16.223 41.652 17.7307 42.3733 19.1549 42.5043C20.5461 42.6323 21.8122 42.1946 22.5209 41.8717L22.1063 40.9617C21.4734 41.25 20.3921 41.6139 19.2465 41.5085C18.1337 41.4062 16.9149 40.8594 15.9486 39.2359L15.0893 39.7474ZM22.8091 41.4837C23.0007 40.0687 23.5632 39.1666 24.13 38.6746L23.4745 37.9194C22.6974 38.594 22.0372 39.7313 21.8181 41.3496L22.8091 41.4837ZM23.8581 37.8001C21.2922 37.5118 18.7597 36.8769 16.8695 35.282C15.0032 33.7072 13.6856 31.1284 13.6856 26.775H12.6856C12.6856 31.3466 14.0806 34.2371 16.2246 36.0463C18.3449 37.8353 21.1207 38.4988 23.7465 38.7939L23.8581 37.8001ZM13.6856 26.775C13.6856 24.3649 14.5394 22.3863 15.9468 20.8421L15.2077 20.1685C13.6378 21.891 12.6856 24.1078 12.6856 26.775H13.6856ZM16.0415 20.3196C15.8362 19.8064 15.0558 17.5554 16.2749 14.5077L15.3464 14.1363C13.9988 17.5052 14.8517 20.0376 15.113 20.691L16.0415 20.3196ZM15.8106 14.322C15.9605 14.799 15.96 14.7991 15.9596 14.7993C15.9594 14.7993 15.959 14.7995 15.9587 14.7996C15.9581 14.7997 15.9575 14.7999 15.957 14.8001C15.956 14.8004 15.9551 14.8007 15.9542 14.8009C15.9526 14.8014 15.9515 14.8017 15.9508 14.8019C15.9494 14.8023 15.9499 14.8021 15.9523 14.8015C15.9571 14.8004 15.9696 14.7975 15.9898 14.7939C16.0302 14.7868 16.102 14.777 16.2065 14.7726C16.4152 14.7638 16.7569 14.7769 17.2413 14.8796C18.211 15.0854 19.7563 15.6516 21.9482 17.1262L22.5064 16.2965C20.2346 14.7681 18.5716 14.1396 17.4488 13.9014C16.8871 13.7822 16.4615 13.761 16.1646 13.7735C16.0162 13.7797 15.9006 13.7943 15.8167 13.809C15.7748 13.8164 15.7409 13.8238 15.715 13.8301C15.702 13.8333 15.691 13.8362 15.6819 13.8387C15.6774 13.84 15.6734 13.8412 15.6699 13.8422C15.6681 13.8427 15.6664 13.8432 15.6649 13.8437C15.6642 13.8439 15.6634 13.8441 15.6627 13.8444C15.6624 13.8445 15.6619 13.8446 15.6617 13.8447C15.6612 13.8448 15.6607 13.845 15.8106 14.322ZM22.3608 17.1932C24.2165 16.6789 26.1338 16.4205 28.0594 16.425L28.0618 15.425C26.0451 15.4203 24.0372 15.6909 22.0938 16.2295L22.3608 17.1932ZM28.0606 16.425C30.0008 16.425 31.9384 16.6807 33.7586 17.1926L34.0293 16.23C32.1161 15.6919 30.0871 15.425 28.0606 15.425V16.425ZM34.175 17.1249C36.3664 15.6357 37.9105 15.0704 38.8782 14.8686C39.3617 14.7678 39.7024 14.7574 39.9101 14.7681C40.0141 14.7734 40.0855 14.7841 40.1255 14.7916C40.1456 14.7954 40.1579 14.7984 40.1625 14.7996C40.1649 14.8002 40.1653 14.8004 40.1639 14.8C40.1632 14.7997 40.162 14.7994 40.1604 14.7989C40.1595 14.7986 40.1586 14.7983 40.1575 14.798C40.157 14.7978 40.1565 14.7976 40.1559 14.7974C40.1556 14.7973 40.1551 14.7972 40.155 14.7972C40.1545 14.797 40.154 14.7968 40.3106 14.322C40.4672 13.8471 40.4667 13.847 40.4662 13.8468C40.466 13.8468 40.4655 13.8466 40.4652 13.8465C40.4645 13.8462 40.4637 13.846 40.463 13.8458C40.4614 13.8453 40.4598 13.8448 40.458 13.8442C40.4544 13.8431 40.4504 13.8419 40.4458 13.8405C40.4368 13.8378 40.4257 13.8348 40.4126 13.8314C40.3865 13.8246 40.3525 13.8168 40.3104 13.8089C40.2262 13.793 40.1102 13.7771 39.9613 13.7694C39.6634 13.7541 39.2368 13.7723 38.6741 13.8897C37.5494 14.1242 35.8852 14.7536 33.6129 16.2978L34.175 17.1249ZM39.8464 14.5077C41.0655 17.5554 40.285 19.8064 40.0797 20.3196L41.0082 20.691C41.2696 20.0376 42.1224 17.5052 40.7749 14.1363L39.8464 14.5077ZM40.1741 20.8418C41.5803 22.387 42.4356 24.338 42.4356 26.775H43.4356C43.4356 24.0787 42.4803 21.8903 40.9137 20.1688L40.1741 20.8418ZM42.4356 26.775C42.4356 31.1433 41.1113 33.7215 39.2388 35.2924C37.3418 36.8839 34.8024 37.5117 32.2351 37.8001L32.3468 38.7939C34.9712 38.499 37.7541 37.8434 39.8815 36.0585C42.0334 34.2532 43.4356 31.3621 43.4356 26.775H42.4356ZM31.9645 38.6757C32.6745 39.2877 33.3659 40.5347 33.3659 42.6137H34.3659C34.3659 40.3152 33.5967 38.7623 32.6174 37.9183L31.9645 38.6757ZM33.3659 42.6137C33.3659 44.1719 33.3584 45.5777 33.3508 46.6927C33.3432 47.8055 33.3356 48.6337 33.3356 49.0303H34.3356C34.3356 48.6382 34.3432 47.818 34.3508 46.6995C34.3584 45.5833 34.3659 44.1751 34.3659 42.6137H33.3659ZM33.3356 49.0303C33.3356 49.4441 33.4828 49.9276 33.8669 50.2722C34.2666 50.6309 34.8404 50.7663 35.539 50.6266L35.3429 49.646C34.8749 49.7396 34.646 49.6278 34.5347 49.5279C34.4077 49.414 34.3356 49.2279 34.3356 49.0303H33.3356ZM35.6009 50.61C40.3313 49.0124 44.4417 45.9716 47.3535 41.9157L46.5412 41.3325C43.7513 45.2185 39.8132 48.1319 35.281 49.6626L35.6009 50.61ZM47.3535 41.9157C50.2653 37.8599 51.8321 32.993 51.8333 28.0001L50.8333 27.9999C50.8321 32.7836 49.331 37.4466 46.5412 41.3325L47.3535 41.9157ZM51.8333 28C51.8333 14.8322 41.1678 4.16666 27.9999 4.16666V5.16666C40.6155 5.16666 50.8333 15.3845 50.8333 28H51.8333Z" fill="black" mask="url(#path-1-inside-1_10_11)"/>
</svg>
