<svg width="49" height="49" viewBox="0 0 49 49" fill="none" xmlns="http://www.w3.org/2000/svg">
<path d="M24.5021 4.08334C13.2219 4.08334 4.08545 13.2198 4.08545 24.5C4.08299 28.7858 5.43009 32.9635 7.93565 36.4406C10.4412 39.9177 13.978 42.5175 18.0443 43.8713C19.0652 44.049 19.449 43.4365 19.449 42.8995C19.449 42.4156 19.4225 40.8088 19.4225 39.0979C14.2938 40.0432 12.9667 37.8484 12.5584 36.699C12.3277 36.111 11.3334 34.3 10.4657 33.8141C9.75108 33.4323 8.73024 32.487 10.4391 32.4625C12.048 32.436 13.1954 33.9427 13.5792 34.5552C15.4167 37.6422 18.3506 36.7745 19.5245 36.2396C19.7042 34.9125 20.2391 34.0203 20.8271 33.5099C16.2844 32.9995 11.5375 31.2375 11.5375 23.4281C11.5375 21.2068 12.3277 19.3713 13.6302 17.9422C13.4261 17.4318 12.7115 15.3391 13.8344 12.5318C13.8344 12.5318 15.5433 11.9948 19.449 14.6224C21.1111 14.1618 22.8284 13.9303 24.5532 13.9344C26.2886 13.9344 28.024 14.1631 29.6573 14.6224C33.563 11.9683 35.2719 12.5318 35.2719 12.5318C36.3948 15.3391 35.6802 17.4318 35.4761 17.9422C36.7766 19.3713 37.5688 21.1823 37.5688 23.4281C37.5688 31.2641 32.7974 32.9995 28.2547 33.5099C28.9938 34.1469 29.6328 35.3719 29.6328 37.287C29.6328 40.0167 29.6063 42.2115 29.6063 42.9016C29.6063 43.4365 29.9901 44.0735 31.011 43.8693C35.0633 42.5006 38.5845 39.8957 41.079 36.4211C43.5735 32.9466 44.9157 28.7773 44.9167 24.5C44.9167 13.2198 35.7803 4.08334 24.5001 4.08334" fill="#FFBF1C"/>
</svg>
