<svg width="51" height="51" viewBox="0 0 51 51" fill="none" xmlns="http://www.w3.org/2000/svg">
<path d="M39.3125 39.5625H39.5625V39.3125V28.05C39.5625 26.1464 38.8063 24.3208 37.4603 22.9747C36.1142 21.6287 34.2886 20.8725 32.385 20.8725C30.7371 20.8725 28.8649 21.7447 27.705 23.1168V21.5262V21.2762H27.455H21.5262H21.2762V21.5262V39.3125V39.5625H21.5262H27.455H27.705V39.3125V28.8363C27.705 27.3357 28.9129 26.1112 30.4088 26.1112C31.1315 26.1112 31.8246 26.3983 32.3356 26.9094C32.8467 27.4204 33.1338 28.1135 33.1338 28.8363V39.3125V39.5625H33.3838H39.3125ZM17.5738 39.5625H17.8238V39.3125V21.5262V21.2762H17.5738H11.6875H11.4375V21.5262V39.3125V39.5625H11.6875H17.5738ZM40.375 6.625C41.4359 6.625 42.4533 7.04643 43.2034 7.79657C43.9536 8.54672 44.375 9.56413 44.375 10.625V40.375C44.375 41.4359 43.9536 42.4533 43.2034 43.2034C42.4533 43.9536 41.4359 44.375 40.375 44.375H10.625C9.56413 44.375 8.54672 43.9536 7.79657 43.2034C7.04643 42.4533 6.625 41.4359 6.625 40.375V10.625C6.625 9.56413 7.04643 8.54672 7.79657 7.79657C8.54672 7.04643 9.56413 6.625 10.625 6.625H40.375ZM14.62 18.44C15.6331 18.44 16.6048 18.0375 17.3211 17.3211C18.0375 16.6048 18.44 15.6331 18.44 14.62C18.44 12.5076 16.7362 10.7787 14.62 10.7787C13.6012 10.7787 12.6242 11.1835 11.9038 11.9038C11.1835 12.6242 10.7787 13.6012 10.7787 14.62C10.7787 16.7362 12.5076 18.44 14.62 18.44Z" fill="#FFBF1C" stroke="black" stroke-width="0.5"/>
</svg>
